<?xml version="1.0" standalone="no"?>
<!DOCTYPE svg PUBLIC "-//W3C//DTD SVG 20010904//EN"
 "http://www.w3.org/TR/2001/REC-SVG-20010904/DTD/svg10.dtd">
<svg version="1.0" xmlns="http://www.w3.org/2000/svg"
 width="1870.000000pt" height="866.000000pt" viewBox="0 0 1870.000000 866.000000"
 preserveAspectRatio="xMidYMid meet">
<metadata>
Created by potrace 1.16, written by Peter Selinger 2001-2019
</metadata>
<g transform="translate(0.000000,866.000000) scale(0.100000,-0.100000)"
fill="#000000" stroke="none">
<path d="M20 4330 l0 -4330 9340 0 9340 0 0 4330 0 4330 -9340 0 -9340 0 0
-4330z m2170 3601 l0 -109 -70 -1 c-60 0 -71 2 -85 21 -17 26 -20 80 -4 109
14 27 53 41 84 29 24 -9 25 -8 25 25 0 31 3 35 25 35 l25 0 0 -109z m810 0 l0
-109 -70 -1 c-60 0 -71 2 -85 21 -19 28 -19 87 0 115 18 26 59 37 85 23 18
-10 20 -8 20 18 0 33 6 42 32 42 16 0 18 -10 18 -109z m-1010 79 c0 -17 -7
-20 -40 -20 -36 0 -40 -2 -40 -25 0 -22 4 -25 35 -25 24 0 35 -5 35 -15 0 -11
-11 -15 -36 -15 -33 0 -35 -2 -32 -27 3 -24 8 -28 41 -31 24 -2 37 -8 37 -18
0 -11 -14 -14 -60 -14 l-60 0 0 105 0 105 60 0 c53 0 60 -2 60 -20z m671 -46
c38 -35 28 -121 -16 -138 -36 -13 -84 -6 -105 16 -23 25 -27 85 -7 110 32 40
91 46 128 12z m13519 -102 c25 -26 29 -27 33 -11 3 10 17 24 31 30 21 10 30 9
53 -6 17 -11 23 -20 15 -23 -7 -2 -19 1 -27 8 -24 20 -55 3 -55 -30 0 -34 26
-53 53 -39 24 14 21 27 -5 32 -17 3 -14 5 10 6 25 1 32 -3 32 -18 0 -46 -84
-57 -106 -13 l-11 23 -17 -26 c-19 -29 -65 -34 -90 -9 -24 23 -20 70 6 88 32
22 46 20 78 -12z m-7910 -2791 l0 -109 -70 0 c-64 -1 -71 1 -91 26 -16 21 -20
36 -16 67 8 53 39 79 89 72 36 -5 38 -4 38 24 0 24 4 29 25 29 l25 0 0 -109z
m-830 42 c16 -80 17 -82 25 -48 27 112 24 106 58 103 29 -3 32 -6 47 -68 l16
-65 13 68 c13 64 14 67 42 67 32 0 34 -6 18 -65 -39 -149 -37 -145 -73 -145
-33 0 -34 2 -49 58 -15 59 -18 58 -37 -15 -10 -40 -13 -43 -45 -43 -30 0 -36
4 -41 28 -4 15 -15 58 -25 97 -24 88 -24 85 10 85 28 0 30 -3 41 -57z m1311
47 c21 -12 26 -59 7 -78 -9 -9 -8 -16 5 -30 21 -23 21 -41 1 -70 -13 -19 -24
-22 -90 -22 l-74 0 0 105 0 105 66 0 c36 0 74 -5 85 -10z m969 -10 c0 -11 7
-20 15 -20 9 0 15 -9 15 -25 0 -16 -6 -25 -15 -25 -10 0 -15 -11 -15 -35 0
-24 5 -35 15 -35 9 0 15 -9 15 -25 0 -22 -4 -25 -33 -25 -45 0 -57 15 -57 72
0 26 -4 48 -10 48 -5 0 -10 11 -10 25 0 14 5 25 10 25 6 0 10 9 10 20 0 16 7
20 30 20 23 0 30 -4 30 -20z m172 -57 c3 -74 4 -78 27 -81 33 -5 41 12 41 91
l0 67 30 0 30 0 0 -64 c0 -111 -23 -146 -95 -146 -72 0 -95 35 -95 146 l0 64
30 0 29 0 3 -77z m1268 57 c0 -17 7 -20 49 -20 l49 0 18 -47 18 -47 19 47 c17
41 23 47 49 47 20 0 29 -4 25 -12 -2 -7 -26 -64 -52 -125 -46 -107 -49 -113
-77 -113 -20 0 -28 4 -24 13 29 71 29 80 -7 157 -23 48 -36 67 -36 53 -1 -13
-7 -23 -16 -23 -10 0 -15 -11 -15 -35 0 -24 5 -35 15 -35 9 0 15 -9 15 -25 0
-21 -5 -25 -29 -25 -38 0 -61 32 -61 82 0 21 -4 38 -10 38 -5 0 -10 11 -10 25
0 14 5 25 10 25 6 0 10 9 10 20 0 16 7 20 30 20 23 0 30 -4 30 -20z m-3326
-41 c20 -16 26 -29 26 -62 0 -55 -30 -87 -82 -87 -53 0 -74 13 -87 53 -29 87
70 153 143 96z m658 4 c10 -9 18 -22 18 -30 0 -15 -46 -18 -55 -3 -8 12 -35
13 -35 1 0 -5 19 -15 43 -23 35 -11 43 -18 45 -41 5 -41 -14 -57 -64 -57 -45
0 -91 30 -79 50 8 13 55 13 55 0 0 -5 9 -10 20 -10 33 0 22 15 -22 30 -34 12
-44 20 -46 41 -2 15 4 34 13 43 21 21 83 21 107 -1z m568 -87 c0 -89 -3 -105
-20 -124 -37 -39 -150 -21 -150 24 0 16 46 19 69 5 19 -12 41 -3 41 18 0 13
-8 16 -39 13 -32 -3 -42 1 -60 23 -27 35 -27 85 -1 118 19 24 27 26 90 26 l70
0 0 -103z m208 -1 c-4 -125 -16 -145 -86 -145 -43 0 -92 27 -92 52 0 12 48 10
71 -3 15 -7 24 -7 35 2 27 22 15 34 -33 34 -45 0 -49 2 -66 37 -16 32 -17 43
-7 73 15 46 31 53 113 53 l69 0 -4 -103z m167 80 c14 -13 25 -36 25 -50 0 -24
-2 -25 -62 -25 -58 0 -61 -1 -45 -17 14 -14 20 -15 40 -4 13 7 34 11 47 9 l22
-3 -22 -27 c-28 -37 -98 -40 -130 -6 -28 30 -27 94 2 125 30 32 90 32 123 -2z
m167 8 c10 -9 18 -22 18 -30 0 -15 -46 -18 -55 -3 -8 12 -35 13 -35 1 0 -5 19
-15 43 -23 35 -11 43 -18 45 -41 5 -41 -14 -57 -64 -57 -31 0 -50 6 -64 20
-28 28 -25 40 10 40 17 0 30 -4 30 -10 0 -5 9 -10 20 -10 33 0 22 15 -22 30
-34 12 -44 20 -46 41 -2 15 4 34 13 43 21 21 83 21 107 -1z m599 -4 c15 -15
19 -33 19 -84 l0 -65 -30 0 c-28 0 -29 1 -32 57 -2 47 -6 58 -22 61 -26 5 -36
-15 -36 -70 0 -44 -2 -48 -25 -48 -25 0 -25 1 -25 84 l0 84 66 0 c52 0 70 -4
85 -19z m196 -33 c8 -26 16 -46 19 -44 2 3 10 25 17 49 11 39 16 44 44 47 l32
3 -23 -68 c-38 -109 -35 -104 -73 -101 -34 3 -36 5 -64 82 -16 44 -29 82 -29
84 0 2 14 2 32 0 28 -3 32 -8 45 -52z m262 37 c11 -10 24 -33 27 -50 l7 -33
-64 0 c-60 0 -62 -1 -46 -17 13 -13 20 -14 29 -5 15 15 68 16 68 0 0 -26 -34
-48 -72 -48 -53 0 -74 13 -87 53 -13 39 -2 82 27 103 25 19 86 17 111 -3z
m301 -3 c28 -28 25 -40 -10 -40 -16 0 -30 5 -30 10 0 6 -7 10 -15 10 -27 0
-16 -15 28 -35 47 -22 57 -47 31 -76 -33 -37 -134 -17 -134 28 0 15 46 18 55
3 8 -12 35 -13 35 -1 0 5 -12 12 -27 16 -36 8 -63 33 -63 56 0 45 93 66 130
29z m-292 -1836 l-3 -286 -1292 -6 -1293 -5 0 292 0 291 1295 0 1295 0 -2
-286z"/>
<path d="M8098 3544 c-5 -4 -8 -128 -8 -276 l0 -268 1285 0 1285 0 0 270 0
270 -182 0 c-101 0 -676 3 -1278 6 -602 3 -1098 2 -1102 -2z"/>
</g>
</svg>
